<?xml version="1.0" encoding="utf-8"?>
<!-- Generator: Adobe Illustrator 25.2.0, SVG Export Plug-In . SVG Version: 6.00 Build 0)  -->
<svg version="1.1" id="Layer_1" xmlns="http://www.w3.org/2000/svg" xmlns:xlink="http://www.w3.org/1999/xlink" x="0px" y="0px"
	 viewBox="0 0 150.1 135" style="enable-background:new 0 0 150.1 135;" xml:space="preserve">
<style type="text/css">
	.st0{fill:#EF7D05;}
	.st1{fill:#353942;}
</style>
<g>
	<path class="st0" d="M105.1,79c-1-1.1-2.1-2-3.1-2.8c-4.2,4.1-9.6,7.3-15.9,8.9c2.7,1.9,4.3,3.3,4.3,3.3c2.4,2.3,3.9,5.5,3.9,9.5
		c0,10.1-8.1,15.7-18.5,15.7c-10.4,0-19.1-6.2-19.1-15.7H38.7c0,19.7,15.9,32.6,37,32.6c21.2,0,36.6-12.4,36.6-32.6
		c0-6.1-1.3-11.9-5.5-16.9C106.3,80.4,105.8,79.7,105.1,79z"/>
	<path class="st1" d="M113.1,14.5L99.8,4.5l-7.7,9.6c-5-2.4-10.8-3.7-17.3-3.7C51.5,10.4,37,27.6,37,48.5c0,21,14.2,38.1,37.9,38.1
		s38.1-17,38.1-38.1c0-9-2.8-17.4-7.9-24L113.1,14.5z M74.9,69.9c-13.2,0-19.9-10.4-19.9-21.5c0-11,6.8-21.6,19.9-21.6
		c12.1,0,19.9,10.7,19.9,21.6C94.8,59.6,88.1,69.9,74.9,69.9z"/>
</g>
</svg>
